<svg xmlns="http://www.w3.org/2000/svg" viewBox="0 0 477.08 431.93"><defs><style>.cls-1{fill:#b9711d;}.cls-2{fill:#7c4d22;}.cls-3{fill:#f39518;}.cls-4{fill:#d2810e;}.cls-5{fill:#3d270f;}</style></defs><g id="레이어_2" data-name="레이어 2"><g id="레이어_1-2" data-name="레이어 1"><rect class="cls-1" x="175.16" width="42.04" height="431.93"/><rect class="cls-2" x="217.2" width="42.04" height="431.93"/><rect class="cls-3" y="59.63" width="218.2" height="226.33"/><polygon class="cls-4" points="477.08 172.79 409.4 59.15 409.4 59.63 218.2 59.63 218.2 285.96 409.4 285.96 409.4 286.44 477.08 172.79"/><path class="cls-2" d="M96.48,137.16v0H60.78v71H79V185.3H96.48v-.05c11-.49,19.78-11.05,19.78-24.05S107.47,137.65,96.48,137.16Zm-3.63,31.92H78.92V153.34H92a11.32,11.32,0,0,1,3.55,8.31A11.46,11.46,0,0,1,92.85,169.08Z"/><rect class="cls-2" x="122.13" y="137.45" width="18.86" height="70.69"/><rect class="cls-5" x="297.78" y="136.99" width="18.86" height="70.69"/><polygon class="cls-5" points="284.37 193.57 284.37 179.71 284.37 177.21 284.37 137.38 266.23 137.38 266.23 171.32 238.59 137.4 238.59 137.38 222.85 137.38 222.85 170.97 222.85 181.72 222.85 208.21 240.99 208.21 240.99 172.1 268.17 205.45 268.17 205.45 270.41 208.2 270.41 208.21 270.55 208.21 271.65 208.21 284.37 208.21 284.37 193.7 284.44 193.65 284.37 193.57"/><path class="cls-2" d="M199.74,183.46a18,18,0,0,1-14.24,7.12c-10.05,0-18.19-8.41-18.19-18.77s8.14-18.76,18.19-18.76a18,18,0,0,1,15.07,8.26l13.73-10.23a35.8,35.8,0,1,0,.87,41.29Z"/><path class="cls-5" d="M376.34,183.46a18,18,0,0,1-14.25,7.12c-10,0-18.19-8.41-18.19-18.77s8.15-18.76,18.19-18.76a18,18,0,0,1,15.08,8.26l13.72-10.23a35.79,35.79,0,1,0,.88,41.29Z"/></g></g></svg>